<svg width={} height={} viewBox="0 0 24 29" fill="none" xmlns="http://www.w3.org/2000/svg">
<path d="M3.70588 12.7941C3.70588 9.04183 6.74771 6 10.5 6V6C14.2523 6 17.2941 9.04183 17.2941 12.7941V15.1472C17.2941 15.5283 17.2941 15.7189 17.3028 15.9047C17.3721 17.3943 17.8564 18.8349 18.701 20.0639C18.8064 20.2172 18.9215 20.3691 19.1517 20.6728L19.4137 21.0184C19.7293 21.4348 19.8872 21.643 19.9393 21.8055C20.1048 22.3212 19.8297 22.8749 19.3188 23.0545C19.1578 23.1111 18.8965 23.1111 18.374 23.1111H2.62603C2.10347 23.1111 1.8422 23.1111 1.6812 23.0545C1.17027 22.8749 0.895184 22.3212 1.06069 21.8055C1.11284 21.643 1.27067 21.4348 1.58634 21.0184L1.84829 20.6728C2.07852 20.3691 2.19364 20.2172 2.29902 20.0639C3.14362 18.8349 3.62791 17.3943 3.69723 15.9047C3.70588 15.7189 3.70588 15.5283 3.70588 15.1472V12.7941Z" stroke={} stroke-width="2"/>
<path d="M7.51689 25.7353C7.69285 26.385 8.08056 26.9591 8.6199 27.3686C9.15924 27.7781 9.82007 28 10.4999 28C11.1797 28 11.8406 27.7781 12.3799 27.3686C12.9192 26.9591 13.307 26.385 13.4829 25.7353" stroke={} stroke-width="2" stroke-linecap="round"/>
<circle cx="21.5" cy="2.5" r="2.5" fill="#FF0000"/>
</svg>
