<svg width="40" height="40" viewBox="0 0 287 285" fill="none" xmlns="http://www.w3.org/2000/svg">
<rect width="286.944" height="284.422" rx="72.6466" fill="#330B5B"/>
<rect x="64.7305" y="46.5161" width="42.3134" height="130.466" fill="#FCFCFC"/>
<rect x="124.675" y="46.5161" width="42.3134" height="184.769" fill="#FCFCFC"/>
<rect x="184.619" y="88.8296" width="42.3134" height="100.847" fill="#FCFCFC"/>
<path d="M64.7305 191.792H107.044V231.285H64.7305V191.792Z" fill="#A4A4F4"/>
<path d="M226.933 88.8296C226.933 83.2729 225.838 77.7706 223.712 72.6369C221.585 67.5032 218.468 62.8386 214.539 58.9094C210.61 54.9803 205.945 51.8635 200.812 49.737C195.678 47.6106 190.176 46.5161 184.619 46.5161V88.8296H226.933Z" fill="#FCFCFC"/>
<path d="M185.011 189.549C185.011 195.105 186.106 200.608 188.232 205.741C190.359 210.875 193.475 215.54 197.405 219.469C201.334 223.398 205.998 226.515 211.132 228.641C216.266 230.768 221.768 231.862 227.325 231.862V189.549H185.011Z" fill="#FCFCFC"/>
</svg>
