<svg width="365" height="180" viewBox="-10 -10 365 180" fill="none" xmlns="http://www.w3.org/2000/svg">
<mask id="path-1-inside-1_1595_6681" fill="white">
<path fill-rule="evenodd" clip-rule="evenodd" d="M345 149.711V9.49712C340.59 9.29439 337.047 5.15316 336.873 0H108.074C107.896 5.28456 104.174 9.50492 99.608 9.50492C95.0423 9.50492 91.3201 5.28456 91.1422 0H8.80478C8.62686 5.28454 4.90463 9.5049 0.338928 9.5049C0.225403 9.5049 0.112427 9.50229 0 9.49712V150.503C0.112427 150.498 0.225403 150.495 0.338928 150.495C4.90466 150.495 8.62689 154.715 8.80478 160H91.1422C91.3201 154.715 95.0423 150.495 99.608 150.495C104.174 150.495 107.896 154.715 108.074 160H336.873C336.869 159.869 336.866 159.737 336.866 159.604C336.866 154.268 340.478 149.919 345 149.711Z"/>
</mask>
<g filter="url(#filter0_i_1595_6681)">
<path fill-rule="evenodd" clip-rule="evenodd" d="M345 149.711V9.49712C340.59 9.29439 337.047 5.15316 336.873 0H108.074C107.896 5.28456 104.174 9.50492 99.608 9.50492C95.0423 9.50492 91.3201 5.28456 91.1422 0H8.80478C8.62686 5.28454 4.90463 9.5049 0.338928 9.5049C0.225403 9.5049 0.112427 9.50229 0 9.49712V150.503C0.112427 150.498 0.225403 150.495 0.338928 150.495C4.90466 150.495 8.62689 154.715 8.80478 160H91.1422C91.3201 154.715 95.0423 150.495 99.608 150.495C104.174 150.495 107.896 154.715 108.074 160H336.873C336.869 159.869 336.866 159.737 336.866 159.604C336.866 154.268 340.478 149.919 345 149.711Z" fill="white"/>
</g>
<path d="M345 9.49712L345.046 8.49818L346 8.54204V9.49712H345ZM345 149.711H346V150.666L345.046 150.71L345 149.711ZM336.873 0V-1H337.84L337.873 -0.0336476L336.873 0ZM108.074 0L107.074 -0.0336455L107.107 -1H108.074V0ZM91.1422 0V-1H92.1091L92.1416 -0.0336455L91.1422 0ZM8.80478 0L7.80535 -0.0336485L7.83788 -1H8.80478V0ZM0 9.49712H-1V8.45009L0.0459273 8.49818L0 9.49712ZM0 150.503L0.0459612 151.502L-1 151.55V150.503H0ZM8.80478 160V161H7.83787L7.80535 160.034L8.80478 160ZM91.1422 160L92.1416 160.034L92.1091 161H91.1422V160ZM108.074 160V161H107.107L107.074 160.034L108.074 160ZM336.873 160L337.873 159.966L337.907 161H336.873V160ZM346 9.49712V149.711H344V9.49712H346ZM337.873 -0.0336476C338.033 4.73285 341.282 8.32511 345.046 8.49818L344.954 10.4961C339.899 10.2637 336.06 5.57347 335.874 0.0336476L337.873 -0.0336476ZM108.074 -1H336.873V1H108.074V-1ZM99.608 8.50492C103.499 8.50492 106.91 4.85846 107.074 -0.0336455L109.073 0.0336455C108.882 5.71065 104.848 10.5049 99.608 10.5049V8.50492ZM92.1416 -0.0336455C92.3063 4.85846 95.7169 8.50492 99.608 8.50492V10.5049C94.3677 10.5049 90.3339 5.71065 90.1428 0.0336455L92.1416 -0.0336455ZM8.80478 -1H91.1422V1H8.80478V-1ZM0.338928 8.5049C4.23003 8.5049 7.64064 4.85844 7.80535 -0.0336485L9.80421 0.0336485C9.61308 5.71064 5.57923 10.5049 0.338928 10.5049V8.5049ZM0.0459273 8.49818C0.143063 8.50264 0.240726 8.5049 0.338928 8.5049V10.5049C0.21008 10.5049 0.0817906 10.5019 -0.0459273 10.4961L0.0459273 8.49818ZM-1 150.503V9.49712H1V150.503H-1ZM0.338928 151.495C0.240731 151.495 0.14308 151.497 0.0459612 151.502L-0.0459612 149.504C0.0817737 149.498 0.210074 149.495 0.338928 149.495V151.495ZM7.80535 160.034C7.64067 155.142 4.23006 151.495 0.338928 151.495V149.495C5.57927 149.495 9.61312 154.289 9.80421 159.966L7.80535 160.034ZM91.1422 161H8.80478V159H91.1422V161ZM99.608 151.495C95.7169 151.495 92.3063 155.142 92.1416 160.034L90.1428 159.966C90.3339 154.289 94.3677 149.495 99.608 149.495V151.495ZM107.074 160.034C106.91 155.142 103.499 151.495 99.608 151.495V149.495C104.848 149.495 108.882 154.289 109.073 159.966L107.074 160.034ZM336.873 161H108.074V159H336.873V161ZM337.866 159.604C337.866 159.725 337.868 159.846 337.873 159.966L335.874 160.034C335.869 159.891 335.866 159.748 335.866 159.604H337.866ZM345.046 150.71C341.187 150.887 337.866 154.664 337.866 159.604H335.866C335.866 153.873 339.769 148.95 344.954 148.712L345.046 150.71Z" fill="#C9CDD2" mask="url(#path-1-inside-1_1595_6681)"/>
<path d="M100 10L100 150.213" stroke="#C9CDD2" stroke-width="2" stroke-dasharray="8 8"/>
<defs>
<filter id="filter0_i_1595_6681" x="0" y="0" width="345" height="161" filterUnits="userSpaceOnUse" color-interpolation-filters="sRGB">
<feFlood flood-opacity="0" result="BackgroundImageFix"/>
<feBlend mode="normal" in="SourceGraphic" in2="BackgroundImageFix" result="shape"/>
<feColorMatrix in="SourceAlpha" type="matrix" values="0 0 0 0 0 0 0 0 0 0 0 0 0 0 0 0 0 0 127 0" result="hardAlpha"/>
<feOffset dy="1"/>
<feGaussianBlur stdDeviation="1.9"/>
<feComposite in2="hardAlpha" operator="arithmetic" k2="-1" k3="1"/>
<feColorMatrix type="matrix" values="0 0 0 0 0 0 0 0 0 0 0 0 0 0 0 0 0 0 0.08 0"/>
<feBlend mode="normal" in2="shape" result="effect1_innerShadow_1595_6681"/>
</filter>
</defs>
</svg>
