<svg width="365" height="180" viewBox="0 0 365 180" fill="none" xmlns="http://www.w3.org/2000/svg">
<g filter="url(#filter0_d_1591_6171)">
<mask id="path-1-inside-1_1591_6171" fill="white">
<path fill-rule="evenodd" clip-rule="evenodd" d="M355 158.711V18.4971C350.59 18.2944 347.047 14.1532 346.873 9H118.074C117.896 14.2846 114.174 18.5049 109.608 18.5049C105.042 18.5049 101.32 14.2846 101.142 9H18.8048C18.6269 14.2845 14.9046 18.5049 10.3389 18.5049C10.2254 18.5049 10.1124 18.5023 10 18.4971V159.503C10.1124 159.498 10.2254 159.495 10.3389 159.495C14.9047 159.495 18.6269 163.715 18.8048 169H101.142C101.32 163.715 105.042 159.495 109.608 159.495C114.174 159.495 117.896 163.715 118.074 169H346.873C346.869 168.869 346.866 168.737 346.866 168.604C346.866 163.268 350.478 158.919 355 158.711Z"/>
</mask>
<path fill-rule="evenodd" clip-rule="evenodd" d="M355 158.711V18.4971C350.59 18.2944 347.047 14.1532 346.873 9H118.074C117.896 14.2846 114.174 18.5049 109.608 18.5049C105.042 18.5049 101.32 14.2846 101.142 9H18.8048C18.6269 14.2845 14.9046 18.5049 10.3389 18.5049C10.2254 18.5049 10.1124 18.5023 10 18.4971V159.503C10.1124 159.498 10.2254 159.495 10.3389 159.495C14.9047 159.495 18.6269 163.715 18.8048 169H101.142C101.32 163.715 105.042 159.495 109.608 159.495C114.174 159.495 117.896 163.715 118.074 169H346.873C346.869 168.869 346.866 168.737 346.866 168.604C346.866 163.268 350.478 158.919 355 158.711Z" fill="white"/>
<path d="M355 18.4971L355.046 17.4982L356 17.542V18.4971H355ZM355 158.711H356V159.666L355.046 159.71L355 158.711ZM346.873 9V8H347.84L347.873 8.96635L346.873 9ZM118.074 9L117.074 8.96635L117.107 8H118.074V9ZM101.142 9V8H102.109L102.142 8.96635L101.142 9ZM18.8048 9L17.8053 8.96635L17.8379 8H18.8048V9ZM10 18.4971H9V17.4501L10.0459 17.4982L10 18.4971ZM10 159.503L10.046 160.502L9 160.55V159.503H10ZM18.8048 169V170H17.8379L17.8053 169.034L18.8048 169ZM101.142 169L102.142 169.034L102.109 170H101.142V169ZM118.074 169V170H117.107L117.074 169.034L118.074 169ZM346.873 169L347.873 168.966L347.907 170H346.873V169ZM356 18.4971V158.711H354V18.4971H356ZM347.873 8.96635C348.033 13.7328 351.282 17.3251 355.046 17.4982L354.954 19.4961C349.899 19.2637 346.06 14.5735 345.874 9.03365L347.873 8.96635ZM118.074 8H346.873V10H118.074V8ZM109.608 17.5049C113.499 17.5049 116.91 13.8585 117.074 8.96635L119.073 9.03365C118.882 14.7107 114.848 19.5049 109.608 19.5049V17.5049ZM102.142 8.96635C102.306 13.8585 105.717 17.5049 109.608 17.5049V19.5049C104.368 19.5049 100.334 14.7107 100.143 9.03365L102.142 8.96635ZM18.8048 8H101.142V10H18.8048V8ZM10.3389 17.5049C14.23 17.5049 17.6406 13.8584 17.8053 8.96635L19.8042 9.03365C19.6131 14.7106 15.5792 19.5049 10.3389 19.5049V17.5049ZM10.0459 17.4982C10.1431 17.5026 10.2407 17.5049 10.3389 17.5049V19.5049C10.2101 19.5049 10.0818 19.5019 9.95407 19.4961L10.0459 17.4982ZM9 159.503V18.4971H11V159.503H9ZM10.3389 160.495C10.2407 160.495 10.1431 160.497 10.046 160.502L9.95404 158.504C10.0818 158.498 10.2101 158.495 10.3389 158.495V160.495ZM17.8053 169.034C17.6407 164.142 14.2301 160.495 10.3389 160.495V158.495C15.5793 158.495 19.6131 163.289 19.8042 168.966L17.8053 169.034ZM101.142 170H18.8048V168H101.142V170ZM109.608 160.495C105.717 160.495 102.306 164.142 102.142 169.034L100.143 168.966C100.334 163.289 104.368 158.495 109.608 158.495V160.495ZM117.074 169.034C116.91 164.142 113.499 160.495 109.608 160.495V158.495C114.848 158.495 118.882 163.289 119.073 168.966L117.074 169.034ZM346.873 170H118.074V168H346.873V170ZM347.866 168.604C347.866 168.725 347.868 168.846 347.873 168.966L345.874 169.034C345.869 168.891 345.866 168.748 345.866 168.604H347.866ZM355.046 159.71C351.187 159.887 347.866 163.664 347.866 168.604H345.866C345.866 162.873 349.769 157.95 354.954 157.712L355.046 159.71Z" fill="#A4A4F4" mask="url(#path-1-inside-1_1591_6171)"/>
</g>
<path d="M110 19L110 159.213" stroke="#A4A4F4" stroke-width="2" stroke-dasharray="8 8"/>
<defs>
<filter id="filter0_d_1591_6171" x="0.6" y="0.6" width="363.8" height="178.8" filterUnits="userSpaceOnUse" color-interpolation-filters="sRGB">
<feFlood flood-opacity="0" result="BackgroundImageFix"/>
<feColorMatrix in="SourceAlpha" type="matrix" values="0 0 0 0 0 0 0 0 0 0 0 0 0 0 0 0 0 0 127 0" result="hardAlpha"/>
<feOffset dy="1"/>
<feGaussianBlur stdDeviation="4.7"/>
<feComposite in2="hardAlpha" operator="out"/>
<feColorMatrix type="matrix" values="0 0 0 0 0.370231 0 0 0 0 0.272718 0 0 0 0 0.158246 0 0 0 0.08 0"/>
<feBlend mode="normal" in2="BackgroundImageFix" result="effect1_dropShadow_1591_6171"/>
<feBlend mode="normal" in="SourceGraphic" in2="effect1_dropShadow_1591_6171" result="shape"/>
</filter>
</defs>
</svg>
