<svg width="365" height="180" viewBox="0 0 365 180" fill="none" xmlns="http://www.w3.org/2000/svg">
<g filter="url(#filter0_d_994_4751)">
<mask id="path-1-inside-1_994_4751" fill="white">
<path fill-rule="evenodd" clip-rule="evenodd" d="M355 158.711V18.4971C350.59 18.2944 347.047 14.1532 346.873 9H118.074C117.896 14.2846 114.174 18.5049 109.608 18.5049C105.042 18.5049 101.32 14.2846 101.142 9H18.8048C18.6269 14.2845 14.9046 18.5049 10.3389 18.5049C10.2254 18.5049 10.1124 18.5023 10 18.4971V159.503C10.1124 159.498 10.2254 159.495 10.3389 159.495C14.9047 159.495 18.6269 163.715 18.8048 169H101.142C101.32 163.715 105.042 159.495 109.608 159.495C114.174 159.495 117.896 163.715 118.074 169H346.873C346.869 168.869 346.866 168.737 346.866 168.604C346.866 163.268 350.478 158.919 355 158.711Z"/>
</mask>
<path fill-rule="evenodd" clip-rule="evenodd" d="M355 158.711V18.4971C350.59 18.2944 347.047 14.1532 346.873 9H118.074C117.896 14.2846 114.174 18.5049 109.608 18.5049C105.042 18.5049 101.32 14.2846 101.142 9H18.8048C18.6269 14.2845 14.9046 18.5049 10.3389 18.5049C10.2254 18.5049 10.1124 18.5023 10 18.4971V159.503C10.1124 159.498 10.2254 159.495 10.3389 159.495C14.9047 159.495 18.6269 163.715 18.8048 169H101.142C101.32 163.715 105.042 159.495 109.608 159.495C114.174 159.495 117.896 163.715 118.074 169H346.873C346.869 168.869 346.866 168.737 346.866 168.604C346.866 163.268 350.478 158.919 355 158.711Z" fill="white"/>
<path d="M355 18.4971L355.023 17.9976L355.5 18.0196V18.4971H355ZM355 158.711H355.5V159.188L355.023 159.21L355 158.711ZM346.873 9V8.5H347.357L347.373 8.98318L346.873 9ZM118.074 9L117.574 8.98318L117.59 8.5H118.074V9ZM101.142 9V8.5H101.626L101.642 8.98318L101.142 9ZM18.8048 9L18.3051 8.98318L18.3213 8.5H18.8048V9ZM10 18.4971H9.5V17.9736L10.0229 17.9976L10 18.4971ZM10 159.503L10.023 160.002L9.5 160.026V159.503H10ZM18.8048 169V169.5H18.3213L18.3051 169.017L18.8048 169ZM101.142 169L101.642 169.017L101.626 169.5H101.142V169ZM118.074 169V169.5H117.59L117.574 169.017L118.074 169ZM346.873 169L347.373 168.983L347.39 169.5H346.873V169ZM355.5 18.4971V158.711H354.5V18.4971H355.5ZM347.373 8.98318C347.54 13.943 350.936 17.8097 355.023 17.9976L354.977 18.9966C350.245 18.779 346.553 14.3633 346.373 9.01682L347.373 8.98318ZM118.074 8.5H346.873V9.5H118.074V8.5ZM109.608 18.0049C113.836 18.0049 117.403 14.0715 117.574 8.98318L118.574 9.01682C118.389 14.4976 114.511 19.0049 109.608 19.0049V18.0049ZM101.642 8.98318C101.813 14.0715 105.38 18.0049 109.608 18.0049V19.0049C104.705 19.0049 100.827 14.4976 100.642 9.01682L101.642 8.98318ZM18.8048 8.5H101.142V9.5H18.8048V8.5ZM10.3389 18.0049C14.5673 18.0049 18.1338 14.0715 18.3051 8.98318L19.3045 9.01682C19.12 14.4976 15.2419 19.0049 10.3389 19.0049V18.0049ZM10.0229 17.9976C10.1277 18.0025 10.2331 18.0049 10.3389 18.0049V19.0049C10.2177 19.0049 10.0971 19.0021 9.97705 18.9966L10.0229 17.9976ZM9.5 159.503V18.4971H10.5V159.503H9.5ZM10.3389 159.995C10.2331 159.995 10.1277 159.997 10.023 160.002L9.97702 159.003C10.0971 158.998 10.2177 158.995 10.3389 158.995V159.995ZM18.3051 169.017C18.1338 163.928 14.5674 159.995 10.3389 159.995V158.995C15.242 158.995 19.12 163.502 19.3045 168.983L18.3051 169.017ZM101.142 169.5H18.8048V168.5H101.142V169.5ZM109.608 159.995C105.38 159.995 101.813 163.928 101.642 169.017L100.642 168.983C100.827 163.502 104.705 158.995 109.608 158.995V159.995ZM117.574 169.017C117.403 163.928 113.836 159.995 109.608 159.995V158.995C114.511 158.995 118.389 163.502 118.574 168.983L117.574 169.017ZM346.873 169.5H118.074V168.5H346.873V169.5ZM347.366 168.604C347.366 168.731 347.369 168.857 347.373 168.983L346.373 169.017C346.369 168.88 346.366 168.742 346.366 168.604H347.366ZM355.023 159.21C350.832 159.403 347.366 163.466 347.366 168.604H346.366C346.366 163.071 350.124 158.434 354.977 158.211L355.023 159.21Z" fill="#999999" mask="url(#path-1-inside-1_994_4751)"/>
</g>
<path d="M110 19.7869L110 160" stroke="#999999" stroke-width="2" stroke-dasharray="8 8"/>
<defs>
<filter id="filter0_d_994_4751" x="0.6" y="0.6" width="363.8" height="178.8" filterUnits="userSpaceOnUse" color-interpolation-filters="sRGB">
<feFlood flood-opacity="0" result="BackgroundImageFix"/>
<feColorMatrix in="SourceAlpha" type="matrix" values="0 0 0 0 0 0 0 0 0 0 0 0 0 0 0 0 0 0 127 0" result="hardAlpha"/>
<feOffset dy="1"/>
<feGaussianBlur stdDeviation="4.7"/>
<feComposite in2="hardAlpha" operator="out"/>
<feColorMatrix type="matrix" values="0 0 0 0 0 0 0 0 0 0 0 0 0 0 0 0 0 0 0.06 0"/>
<feBlend mode="normal" in2="BackgroundImageFix" result="effect1_dropShadow_994_4751"/>
<feBlend mode="normal" in="SourceGraphic" in2="effect1_dropShadow_994_4751" result="shape"/>
</filter>
</defs>
</svg>
